<!DOCTYPE svg PUBLIC "-//W3C//DTD SVG 1.1//EN" "http://www.w3.org/Graphics/SVG/1.1/DTD/svg11.dtd">

<!-- Uploaded to: SVG Repo, www.svgrepo.com, Transformed by: SVG Repo Mixer Tools -->
<svg version="1.1" id="Icons" xmlns="http://www.w3.org/2000/svg" xmlns:xlink="http://www.w3.org/1999/xlink" viewBox="-8.64 -8.64 49.28 49.28" xml:space="preserve" 
width="250px" height="250px" fill="#13357B" stroke="#13357B" transform="rotate(0)matrix(1, 0, 0, 1, 0, 0)">

<g id="SVGRepo_bgCarrier" stroke-width="1px" transform="translate(0.2,1.5), scale(0.95)">

<rect x="-8.64" y="-8.64" width="49.28" height="49.28" rx="24.64" fill="#EDF6F9" strokewidth="0"/>

</g>

<g id="SVGRepo_tracerCarrier" stroke-linecap="round" stroke-linejoin="round" stroke="#CCCCCC" stroke-width="1.472"/>

<g id="SVGRepo_iconCarrier"> <style type="text/css"> .st0{fill:none;stroke:#13357B;stroke-width:0.96;stroke-linecap:round;stroke-linejoin:round;stroke-miterlimit:10;} </style> <polyline class="st0" points="11,31 11,10 21,10 21,31 "/> <polyline class="st0" points="21,31 21,16 30,16 30,31 "/> <polyline class="st0" points="2,31 2,21 11,21 11,31 "/> <rect x="12" y="7" class="st0" width="8" height="3"/> <rect x="14" y="4" class="st0" width="4" height="3"/> <line class="st0" x1="16" y1="1" x2="16" y2="4"/> <line class="st0" x1="14" y1="14" x2="18" y2="14"/> <line class="st0" x1="3" y1="25" x2="7" y2="25"/> <line class="st0" x1="3" y1="29" x2="7" y2="29"/> <line class="st0" x1="14" y1="18" x2="18" y2="18"/> <line class="st0" x1="14" y1="22" x2="18" y2="22"/> <line class="st0" x1="14" y1="26" x2="18" y2="26"/> <line class="st0" x1="14" y1="30" x2="18" y2="30"/> <line class="st0" x1="24" y1="20" x2="24" y2="21"/> <line class="st0" x1="27" y1="20" x2="27" y2="21"/> <line class="st0" x1="24" y1="24" x2="24" y2="25"/> <line class="st0" x1="27" y1="24" x2="27" y2="25"/> <line class="st0" x1="24" y1="28" x2="24" y2="29"/> <line class="st0" x1="27" y1="28" x2="27" y2="29"/> </g>

</svg>