<svg height="40px" width="40px" version="1.1" id="Layer_1" xmlns="http://www.w3.org/2000/svg" xmlns:xlink="http://www.w3.org/1999/xlink" viewBox="0 0 512 512" xml:space="preserve" fill="#13357B"><g id="SVGRepo_bgCarrier" stroke-width="0"></g><g id="SVGRepo_tracerCarrier" stroke-linecap="round" stroke-linejoin="round"></g><g id="SVGRepo_iconCarrier"> <g> <g> <path style="fill:#currentColor;" d="M490.259,233.716h-82.616v-103.27h31.524c11.958,0,20.654-9.783,21.741-21.741V21.741 C460.909,9.783,451.125,0,439.168,0s-21.741,9.783-21.741,21.741v65.223h-31.524h-45.656V21.741 C340.246,9.783,330.463,0,318.505,0c-11.958,0-21.741,9.783-21.741,21.741v65.223h-82.616V21.741 C214.149,9.783,204.365,0,192.408,0c-11.958,0-21.741,9.783-21.741,21.741v65.223h-44.569H93.486V21.741 C93.486,9.783,83.703,0,71.745,0S50.004,9.783,50.004,21.741v86.964c0,11.958,9.783,21.741,21.741,21.741h32.611v104.357H21.741 C9.783,234.803,0,244.586,0,256.544v233.716C0,502.217,9.783,512,21.741,512h104.357h90.225h78.268h90.225h104.357 c11.958,0,21.741-9.783,22.828-21.741V255.456C512,243.499,502.217,233.716,490.259,233.716z M42.395,278.285h61.962v191.321 H42.395V278.285z M238.064,469.605V359.813c0-9.783,7.609-17.393,17.393-17.393s17.393,7.609,17.393,17.393v109.792H238.064z M314.157,469.605V359.813c0-32.611-26.089-59.788-59.788-59.788c-32.611,0-59.788,26.089-59.788,59.788v109.792h-47.83V130.446 h217.41v339.159H314.157z M468.518,469.605h-60.875V277.197h60.875V469.605z"></path> </g> </g> </g></svg>